<?xml version="1.0" encoding="UTF-8"?>
<!DOCTYPE svg PUBLIC "-//W3C//DTD SVG 1.1//EN" "http://www.w3.org/Graphics/SVG/1.1/DTD/svg11.dtd">
<!-- Creator: CorelDRAW 2020 (64-Bit) -->
<svg xmlns="http://www.w3.org/2000/svg" xml:space="preserve" width="36.7455mm" height="47.7982mm" version="1.1" style="shape-rendering:geometricPrecision; text-rendering:geometricPrecision; image-rendering:optimizeQuality; fill-rule:evenodd; clip-rule:evenodd"
viewBox="0 0 6801.08 8846.78"
 xmlns:xlink="http://www.w3.org/1999/xlink"
 xmlns:xodm="http://www.corel.com/coreldraw/odm/2003">
 <defs>
  <style type="text/css">
   <![CDATA[
    .fil0 {fill:#FFCC29}
   ]]>
  </style>
 </defs>
 <g id="Capa_x0020_1">
  <metadata id="CorelCorpID_0Corel-Layer"/>
  <g id="_2195820475424">
   <path class="fil0" d="M987.27 3283.7c0,452.54 23.39,755.32 224.58,1154.44 253.4,502.71 607.53,908.42 1136.76,1151.14 126.73,58.12 259.42,115.44 409.26,154.9 409.23,107.79 863.85,108.24 1272.89,3.22 556.09,-142.79 1006.09,-486.02 1339.99,-932.28 232.12,-310.24 443.08,-846.14 443.08,-1280.68 0,-470.95 -20.43,-749.89 -229.73,-1164.97 -67.61,-134.09 -122.12,-243.09 -206.61,-357.53 -85.51,-115.83 -163.34,-213.29 -264.91,-314.89 -214.09,-214.09 -403.02,-335.95 -672.53,-471.43 -889.69,-447.28 -2038.7,-241.39 -2751.53,471.43 -388.75,388.75 -701.25,1009.07 -701.25,1586.65z"/>
   <path class="fil0" d="M767.88 3440.42c0,-411.61 93.45,-830.37 240.09,-1123.25 82.92,-165.61 187.27,-355.68 296.99,-502.21l234.69 -266.76c589.87,-588.37 1541.45,-931.2 2450.21,-702.92 179.55,45.11 543.88,188.34 702.53,284.72 244.57,148.57 350.24,215.05 561.2,426.03 166.23,166.23 308.22,338.97 424.24,547.35 21.41,38.48 31.89,64.58 52.19,104.52 108.72,213.87 68.91,150.14 154.57,346.89 255.31,586.46 151.72,1417.89 -92.86,1960.49l-235.54 406.95c-128.97,195.3 -298.23,346.48 -467.16,504.43 -412.91,386.13 -1140.94,615.1 -1688.48,615.1 -376.28,0 -818.23,-101.93 -1070.94,-229.71 -351.98,-177.98 -391.12,-197.93 -691.19,-452.79 -19.43,-16.51 -23.04,-19.97 -42.7,-35.65 -196.97,-157.05 -477.34,-574.95 -582.65,-812.03 -128.84,-290.09 -245.18,-660.65 -245.18,-1071.15zm-767.87 -861.89c0,145.77 -2.11,113.07 53.66,228.41 1.59,3.28 3.37,7.46 4.92,10.75 7.61,16.07 7.18,17.05 14.75,32.26l67.83 120.21c142.89,275.33 125.25,241.3 125.25,548.59 0,242.28 -266.41,442.87 -266.41,705.18 0,121.06 4.24,162.88 128.99,278.46 50.79,47.07 127.1,90.66 184.42,128.99 210.42,140.67 359.77,209.35 453.39,502.53 19.95,62.47 22.15,212.18 30.13,283.29 22.95,204.8 -35.63,341.1 146.31,496.18 273.78,233.37 779.3,-97.48 1132.04,419.35 209.89,307.56 208.46,476.86 573.06,476.86 131.45,0 469.01,-296.12 765.57,-279.98 453.35,24.69 691.06,472.47 1052.95,186.7 95.32,-75.26 216.03,-372.93 370.23,-507.34 197.82,-172.43 294.27,-173.81 508.14,-195.95 199.58,-20.66 574.16,49.88 641.8,-315.18 39.68,-214.07 -58.47,-706.18 328.84,-956.15 329.32,-212.55 485.18,-244.33 485.18,-564.75 0,-113.51 -101.28,-248.92 -156.73,-360.4 -156.6,-314.85 -167.87,-479.61 -10.42,-794 119.64,-238.93 167.15,-253.46 167.15,-459.66 0,-225.25 -229.99,-329.84 -386.63,-412.59 -44.44,-23.47 -78.85,-48.07 -116.01,-72.04l-104.72 -98.98c-357.49,-384.46 21.8,-888.95 -400.34,-1104.06 -252.22,-128.52 -733.9,110.98 -1067.32,-405.71 -108.02,-167.43 -208.46,-381.55 -369.17,-430.05 -119.31,-36.02 -105.33,-46.07 -196.23,-29 -199.65,37.46 -195.45,77.42 -363.05,160.12 -242.81,119.81 -237.41,104.39 -491.09,104.39 -91.8,0 -219.23,-58.89 -279.72,-96.37l-61.93 -32.09c-36.33,-15.64 -26.43,-10.61 -61.56,-32.46l-62.21 -31.82c-99.43,-46.88 -187.68,-118.49 -367.47,-60.52 -180.94,58.32 -246.09,226.82 -361.08,406.99 -140.35,219.92 -335.91,362.03 -608.36,363.21 -87.93,0.37 -99.69,15.71 -187.27,16.45 -129.5,1.09 -235.91,2.15 -321.01,55.06 -251.74,156.55 -174.09,370.26 -200.97,566.9 -7.18,52.47 -4.92,111.48 -11.7,176.35 -15.82,151.55 -139.2,359.47 -297.32,470.56 -38.98,27.37 -85.88,52.88 -126.54,77.16l-234.28 157.47c-79.59,68.52 -125.08,152.79 -125.08,266.69z"/>
   <path class="fil0" d="M4184.07 6981.98c-137.98,0 -253.23,-55.8 -349.98,-104.46 -54.9,-27.6 -254.66,-141.81 -308.19,-146.27l203.72 532.81c70.33,175.68 135.67,347.37 208.22,528.29l308.74 788.19c32.5,81.83 70.74,192.32 109.87,266.25 68.44,-18.27 134.13,-110.63 184.12,-160.62l517.13 -532.81c76.83,-77.05 77.83,-124.88 234.43,-101.76 100.91,14.92 219.62,1.41 331.34,13.96 205.22,23.02 444.52,29.04 676.12,29.04l-185.81 -472.34c-49.33,-122.79 -546.15,-1369.06 -550.7,-1423.81 -483.32,0 -538.88,3.07 -743.14,338.15 -141.29,231.78 -307.26,445.39 -635.88,445.39z"/>
   <path class="fil0" d="M517.15 8094.59l989.8 -44.98c161.91,-19.92 164.71,31.93 244.26,111.59 61.24,61.3 111.09,111.09 172.39,172.37l336.91 352.59c79.16,79.16 129,154.73 199.8,160.62 6.29,-75.74 253.99,-674.34 302.25,-794.7l208.18 -528.33c48.01,-120.07 298.41,-735.74 304.45,-808.18 -338.08,178.9 -689.11,419.39 -1052.66,128.1 -109.15,-87.47 -166.56,-196.34 -240.96,-307.52 -210.72,-314.87 -204.09,-337.71 -743.56,-337.71 -4.39,52.6 -61.95,189.68 -84.97,244.13 -35.67,84.36 -58.12,149.57 -93.28,235.8 -1.87,4.57 -7.27,17.64 -9.27,22.06 -1.5,3.31 -3.65,7.22 -5.16,10.49l-20.12 42.59c-6.2,15.44 -6.46,19.12 -12.07,34.93l-467.03 1194.8c-32.83,73.87 -43.46,42.85 -28.95,111.35z"/>
  </g>
 </g>
</svg>
