<?xml version="1.0" encoding="UTF-8"?>
<!DOCTYPE svg PUBLIC "-//W3C//DTD SVG 1.1//EN" "http://www.w3.org/Graphics/SVG/1.1/DTD/svg11.dtd">
<!-- Creator: CorelDRAW 2020 (64-Bit) -->
<svg xmlns="http://www.w3.org/2000/svg" xml:space="preserve" width="79.5198mm" height="52.3809mm" version="1.1" style="shape-rendering:geometricPrecision; text-rendering:geometricPrecision; image-rendering:optimizeQuality; fill-rule:evenodd; clip-rule:evenodd"
viewBox="0 0 3373.14 2221.94"
 xmlns:xlink="http://www.w3.org/1999/xlink"
 xmlns:xodm="http://www.corel.com/coreldraw/odm/2003">
 <defs>
  <style type="text/css">
   <![CDATA[
    .fil0 {fill:#353546}
   ]]>
  </style>
 </defs>
 <g id="Capa_x0020_1">
  <metadata id="CorelCorpID_0Corel-Layer"/>
  <path class="fil0" d="M1460.6 2087.28l448.88 0c-3.21,38.55 -16.28,78.55 -56.11,78.55l-336.66 0c-42.35,0 -51.1,-39.48 -56.11,-78.55zm-998.75 -1930.17c10.41,-4.9 3.49,-2.21 16.42,-3.79 17.89,-2.19 14.78,-1.18 25.61,-1.29l2370.68 5.08c42.91,0 4.08,3.44 33.67,-11.22l0 1312.97c0.08,51.33 20.35,157.1 -33.67,157.1l-2379.05 0c-51.93,0 -33.86,-89.58 -33.68,-145.87l0.02 -1312.98zm-325.44 2064.83l3097.25 0c126.38,0 171.9,-110.29 115.78,-171.34l-285.99 -320.54c-13.77,-28.17 -10.25,-40.82 -9.91,-79.87l0.57 -1414.53c0.08,-136.17 17.68,-235.66 -123.44,-235.66l-2491.27 0c-135.45,0 -123.62,92.1 -123.45,224.43l0.19 1402.93c1.18,108.11 11.13,78.31 -41.41,138.14l-119.19 138.91c-104.42,124.72 -192.36,159.09 -139.93,258.44 22.34,42.33 60.65,59.09 120.79,59.09z"/>
 </g>
</svg>
