<?xml version="1.0" encoding="UTF-8"?>
<!DOCTYPE svg PUBLIC "-//W3C//DTD SVG 1.1//EN" "http://www.w3.org/Graphics/SVG/1.1/DTD/svg11.dtd">
<!-- Creator: CorelDRAW 2020 (64-Bit) -->
<svg xmlns="http://www.w3.org/2000/svg" xml:space="preserve" width="73.6602mm" height="59.3514mm" version="1.1" style="shape-rendering:geometricPrecision; text-rendering:geometricPrecision; image-rendering:optimizeQuality; fill-rule:evenodd; clip-rule:evenodd"
viewBox="0 0 4289.97 3456.63"
 xmlns:xlink="http://www.w3.org/1999/xlink"
 xmlns:xodm="http://www.corel.com/coreldraw/odm/2003">
 <defs>
  <style type="text/css">
   <![CDATA[
    .fil0 {fill:#FFCC29}
   ]]>
  </style>
 </defs>
 <g id="Capa_x0020_1">
  <metadata id="CorelCorpID_0Corel-Layer"/>
  <g id="_2194974906192">
   <path class="fil0" d="M1972.4 1262.33c5.12,21.99 61.66,97.55 78.89,123.28 52.95,-4.41 28.64,-9.86 118.34,-9.86 145.47,0 280.29,118.73 318.47,258.46 14.08,51.5 -2.17,36.5 111.95,85.29l233.62 107.03c28.69,14.25 39.28,-1.95 91.37,-35.61 182.51,-117.98 373.76,-215.09 556.46,-321.26l129.63 -67.61c79.7,-39.85 247.14,-129.36 323.11,-160.13l202.86 -93 -70.66 -156.17c-41.75,-90.27 -153.93,-279.89 -211.38,-365.54l-273.84 -357.33c-59.07,-60.81 -143.35,-165.51 -203.49,-205.78l-119.48 122.14c-15.8,15.63 -27.93,22.56 -44.5,39.32l-485.67 446.29c-85.1,79.11 -207.09,167.63 -291.06,241.48 -14.63,12.87 -28.93,21.87 -44.36,34.54l-231.49 177.79c-62.92,47.23 -124.06,93.32 -188.78,136.66z"/>
   <path class="fil0" d="M152.86 2307.71c9.72,41.73 136.33,283.5 150.76,307.82l86.16 145.6c13.55,22.68 29.53,45.67 44.4,69.01 67.98,106.76 147.06,199.61 221.64,296.12 9.88,12.78 17.06,18.22 27.51,31.67l81.72 90.87c39.86,49.97 117.07,111.04 142.26,148.66 21.85,-14.62 54.29,-51.82 75.2,-72.73 26.68,-26.68 49.75,-49.75 76.43,-76.43 26.67,-26.67 49.89,-49.68 76.39,-76.47 15.13,-15.3 24.94,-20.27 39.59,-34.37 14.47,-13.93 25.21,-25.3 39.34,-39.56l115.98 -105.91c16.61,-16.46 22.91,-22.89 41.32,-37.58 34.32,-27.38 120,-111.47 161.99,-143.73 14.33,-11.01 24.87,-21.47 40.17,-33.79l332.57 -273.94c25.78,-18.52 21.42,-13.23 25.4,-48.57l45.64 -412.94c-27.04,-6.3 -50.61,-31.27 -71.18,-47.16 -20.91,-16.17 -43.03,-44.86 -57.1,-66.17 -44.54,-67.41 -59.09,-120.6 -59.09,-212.12 0,-88.28 33.95,-135.34 64.1,-192.31 -14.75,-22.03 -74,-99.99 -78.9,-118.34l-384.85 246.31c-66.04,39.54 -129.16,79.46 -196.03,119.56 -125.55,75.28 -321.87,185.46 -456.35,253.72l-585.07 282.78z"/>
   <path class="fil0" d="M2381.67 1997.06c16.15,24.11 177.67,165.03 208.32,196.02l246.47 226.91c13.04,12.91 97.3,90.83 112.28,94.83 0,-84.01 9.86,-156.89 9.86,-236.69l379.59 -74.45c-19.26,-15.25 -186.53,-88.91 -207.07,-98.07 -72.71,-32.45 -140.97,-63.23 -213.59,-97.06 -37.29,-17.38 -68.55,-30.12 -105.15,-47.71 -36.45,-17.53 -70.47,-30.52 -105.19,-47.68 -28.96,-14.31 -197.89,-92.03 -217.03,-93.61 -13.55,58.17 -62.96,147.03 -108.48,177.52z"/>
   <path class="fil0" d="M3540.46 113.42l250.8 296.53c45.29,60.53 115.99,156.89 151.97,217.86l69.67 112.77c12.43,20.58 20.27,34.33 32.16,56.6 6.99,13.1 9.45,14.83 16.44,27.93l80.54 156.15 147.93 -69.03c-3.56,-15.28 -6.6,-17.45 -13.12,-31.26l-46.08 -101.85c-44.36,-100.59 -187.66,-325.96 -254.98,-415.64l-83.96 -108.34c-38.72,-43.45 -91.09,-111.33 -135.6,-155.33 -24.62,-24.34 -81.14,-75.48 -97.43,-99.81l-118.34 113.42z"/>
   <path class="fil0" d="M-0 2544.39c5.04,21.62 18.1,46.02 28,65.69 78.2,155.46 100.43,215.14 207.64,374.22 61.78,91.68 135.81,191.42 209.3,273.93 9.34,10.49 9.85,13.99 19.75,24.63 9.09,9.77 15.95,14.74 24.22,25.1 17.08,21.4 28.03,31.97 47.34,51.28 24.93,24.93 75.08,80.8 99.85,97.38l114.62 -112.21 -63.98 -71.57c-127.86,-132.4 -281.39,-341.87 -375.16,-497.63 -12.28,-20.4 -23.63,-39.27 -35.17,-58.52l-128.48 -241.34 -147.93 69.03z"/>
   <path class="fil0" d="M2159.78 2085.81l-54.24 0 -60.05 526.74c-2.24,20.47 -8.99,52.19 -8.99,74.84 59.4,-39.77 163.35,-133.38 221.89,-172.58l281.07 182.45 -221.89 -650.9c-42.95,10.01 -74.66,39.45 -157.79,39.45z"/>
   <path class="fil0" d="M1908.3 1730.78c0,128.71 110.86,236.69 231.75,236.69 207.12,0 328.95,-244.54 168.91,-405.6 -145.34,-146.29 -400.67,-41.5 -400.67,168.91z"/>
  </g>
 </g>
</svg>
