<?xml version="1.0" encoding="UTF-8"?>
<!DOCTYPE svg PUBLIC "-//W3C//DTD SVG 1.1//EN" "http://www.w3.org/Graphics/SVG/1.1/DTD/svg11.dtd">
<!-- Creator: CorelDRAW 2020 (64-Bit) -->
<svg xmlns="http://www.w3.org/2000/svg" xml:space="preserve" width="53.6154mm" height="35.2733mm" version="1.1" style="shape-rendering:geometricPrecision; text-rendering:geometricPrecision; image-rendering:optimizeQuality; fill-rule:evenodd; clip-rule:evenodd"
viewBox="0 0 1917.13 1261.27"
 xmlns:xlink="http://www.w3.org/1999/xlink"
 xmlns:xodm="http://www.corel.com/coreldraw/odm/2003">
 <defs>
  <style type="text/css">
   <![CDATA[
    .fil0 {fill:#353546}
   ]]>
  </style>
 </defs>
 <g id="Capa_x0020_1">
  <metadata id="CorelCorpID_0Corel-Layer"/>
  <g id="_2566183527872">
   <path class="fil0" d="M-0 126.13l0 1009.02c0,68.12 62.43,126.13 100.9,126.13l1715.33 0c38.47,0 100.9,-58.01 100.9,-126.13l0 -996.4c0,-96.72 -143.46,47.89 -221.63,106.3 -43.94,32.83 -70.24,55.88 -113.39,88.42l-470.09 362.34c-161.38,129.27 -286.11,13.55 -415.41,-93.3 -78.59,-64.95 -154.03,-117.17 -233.87,-182.35l-347.48 -270.55c-21.01,-17.02 -115.26,-106.57 -115.26,-23.46z"/>
   <path class="fil0" d="M1816.23 0l-1702.72 0c4.9,58.88 -4.49,26.18 82.95,93.63l638.68 496.47c171.58,144 255.65,-5.91 572.09,-242.33l370.39 -285.47c25.96,-20.99 34.81,-16.54 38.61,-62.29z"/>
  </g>
 </g>
</svg>
