<?xml version="1.0" encoding="UTF-8"?>
<!DOCTYPE svg PUBLIC "-//W3C//DTD SVG 1.1//EN" "http://www.w3.org/Graphics/SVG/1.1/DTD/svg11.dtd">
<!-- Creator: CorelDRAW 2020 (64-Bit) -->
<svg xmlns="http://www.w3.org/2000/svg" xml:space="preserve" width="138.345mm" height="64.6849mm" version="1.1" style="shape-rendering:geometricPrecision; text-rendering:geometricPrecision; image-rendering:optimizeQuality; fill-rule:evenodd; clip-rule:evenodd"
viewBox="0 0 13834.52 6468.49"
 xmlns:xlink="http://www.w3.org/1999/xlink"
 xmlns:xodm="http://www.corel.com/coreldraw/odm/2003">
 <defs>
  <style type="text/css">
   <![CDATA[
    .fil0 {fill:#96989A}
   ]]>
  </style>
 </defs>
 <g id="Capa_x0020_1">
  <metadata id="CorelCorpID_0Corel-Layer"/>
  <path class="fil0" d="M5731.93 5503.28c-83.56,0 -155.11,2.89 -225.15,-45.78 -105.56,-73.35 -206.65,-216.66 -206.65,-377.55 0,-220.67 133.4,-436.88 247.71,-565.08l131.16 -148.24c43.22,-42.97 142.63,-158.74 213.79,-158.74 209.26,0 -68.89,855.29 -100.46,949.4 -13.54,40.35 -24.28,72.15 -38.18,114.22 -12.8,38.71 -36.09,84.83 -39.16,121.71l99.07 -112.6c15.6,-18.46 16.04,-23.37 34.11,-42.09 99.62,-103.16 259.78,-272.14 373.56,-363.04 191.07,-152.65 371.26,-311.37 577.05,-455.88 29.32,-20.6 53.84,-38.99 83.3,-60.64 17.48,-12.84 74.96,-57.95 94.45,-57.95 37.12,0 67.73,47.02 67.73,84.67 0,158.82 -200.66,509.39 -298.41,607.52 -29.45,29.57 -41.12,54.58 -72.83,79.57 -33.14,26.13 -49.51,47.05 -80.94,71.46 -236.77,183.95 -343.91,218.23 -607.2,307.2 -66.52,22.47 -167.87,51.84 -252.95,51.84zm-25.4 -110.06c-9,9 13.43,32.11 4.39,9.43 -0.07,-0.19 9.79,-23.61 -4.39,-9.43zm931.33 660.4c-158.14,0 -272.63,15.05 -417.48,-48.19 -124.98,-54.56 -198.81,-144.38 -55.21,-238.24 59.9,-39.15 227.11,-90.53 336.85,-154.21 116.38,-67.52 191.71,-111.45 299.21,-191.86l135.02 -110.52c88.7,-78.12 201.13,-212.05 262.02,-313.7 135.88,-226.81 196.83,-488.43 141.71,-763.01 -34.47,-171.73 -89.84,-225.87 112.78,-430.31 213.95,-215.86 964.9,-564.65 1263.05,-684.27 204.48,-82.04 681.18,-270.52 870.61,-56.6 240.97,272.11 -41.89,1068.52 -179.84,1348.5 -20.17,40.92 -35.36,77.04 -56.43,121.37 -20.17,42.45 -38.22,66.85 -59.39,109.94 -20.11,40.95 -40.84,76.46 -63.65,114.16 -46.49,76.82 -84.95,145.47 -138.75,216.84 -66.4,88.09 -207.14,256.13 -289.46,328.61 -20.91,18.42 -29.81,21.19 -50.86,42.27l-189.39 157.74c-141.09,106.27 -280.16,183.39 -439.1,263.62 -155.88,78.7 -345.29,138.98 -519.84,182.9 -98.71,24.84 -195.42,39.98 -300.99,54.61 -206.34,28.58 -425.71,50.33 -660.87,50.33l0.01 0.02zm-2497.66 -2683.92c0,-115.57 -5.55,-425.3 57.12,-518.62 76.49,-113.9 208.72,6.06 384.33,77.16 213.5,86.45 1250.55,621.45 1241.15,830.22 -2.19,48.7 -112.96,104.63 -176.82,151.82 -192.11,141.96 -187.42,128 -360.68,299.71 -145.59,144.28 -316.74,411.14 -384.24,597.9 -22.9,63.37 -31.84,197.1 -152.41,146.47 -35.2,-14.78 -99.43,-68.25 -122.29,-98.09l-98.01 -122.12c-60.58,-82.11 -110.97,-176.72 -156.77,-275.03l-114.67 -325.59c-29.21,-114.86 -57.28,-231.27 -78.1,-362.17 -19.55,-122.91 -38.61,-267.66 -38.61,-401.64l0 -0.02zm2412.99 -694.27c-79.79,0 -207.66,-59.82 -285.08,-95.92 -86.84,-40.5 -161.02,-76.33 -245.5,-118.57 -157.74,-78.87 -649.29,-356.33 -783.79,-477.71 -21.29,-19.21 -27,-25.25 -49.85,-43.29 -221.09,-174.62 -432.31,-430.75 -277.85,-728.77 146.25,-282.2 725.67,-399.18 1023.29,-432.98 634.66,-72.07 1323.42,-72.23 1924.96,150.83l139.23 47.03c316.87,125.97 460.22,206.44 728.95,388.65l215.31 165.69c18.12,16.02 28.56,30.46 46.69,46.44 20.63,18.17 29.98,21.68 50.92,42.21 34.03,33.36 54.84,62.39 88.87,97.4l158.22 214.32c64.21,106.71 97.06,155.18 -25.36,227.87 -192.94,114.55 -721.23,290.58 -946.95,365.38l-424.3 142.96c11.45,-31.63 -4.49,-1.16 18.1,-24.23l111.4 -100.26c22.03,-18.52 29.06,-20.85 50.51,-42.62 33.56,-34.03 60.23,-51.24 93.05,-84.75 86.46,-88.27 160.57,-143.48 259.09,-265.84 110.65,-137.45 46.12,-45.61 151.92,-203.68 24.28,-36.28 46.79,-65.23 69.57,-99.76 22.41,-33.97 46.94,-75.32 67.26,-110.54 18.11,-31.41 46.22,-86.5 58.54,-119.25l47.64 -131.89c7.13,-49.69 -35.92,-22.09 -110.75,-7.42 -222.57,43.64 -448.66,125.43 -639.02,241.51 -180.88,110.31 -366.33,16.86 -608.23,94.5 -139.91,44.91 -323.52,174.21 -414.5,288.24 -49.15,61.6 -85.6,84.35 -162.19,193.4 -48.86,69.57 -97.2,136.12 -138.25,217.36 -36.42,72.09 -99.76,163.71 -191.89,163.71l-0.01 -0.02zm-2599.26 -965.2c-42.86,0 -364.01,-131.51 -437.04,-155.62 -149.74,-49.46 -289.84,-97.31 -442.49,-141.71 -300.16,-87.31 -618.27,-171.02 -941.5,-235.36 -656.52,-130.71 -1346.47,-220.84 -2132.9,-220.84 1.69,1.18 4.51,0.61 5.36,3.1l484.48 175.92c568.12,212.95 1141.66,423.78 1705.46,648.27 83.19,33.12 156.54,64.54 240.7,97.98 224.78,89.31 1323.19,539.21 1323.19,700.33l-71.39 394.27c-66.11,478.69 -23.82,1020.44 140.34,1458.7 101.83,271.84 235.52,530.82 419.45,757.42l87.32 107.42c65.11,84.55 212.15,217.57 298.33,294.34 320.46,285.45 707.36,494.28 1110.72,650.34 354.05,136.98 766.62,223.7 1147.89,223.7l177.8 0c541.1,0 1015.03,-158 1408.32,-352.74 26.05,-12.9 36.11,-18.89 59.99,-33.15 24.56,-14.66 42.25,-21.5 65.86,-35.74 85.77,-51.75 163.75,-97.11 242.55,-155.38 91.35,-67.55 189.36,-131.83 270.26,-212.34l156.48 -148.32c36.32,-36.11 57.01,-65.78 93.23,-101.5 21.54,-21.24 24.22,-28.37 42.73,-50.4l131.66 -164.68c15.22,-20.17 23.37,-31.93 38.41,-54.73l116.78 -179.55c24.94,-41.37 48.5,-79.6 71.82,-122.91 95.26,-176.94 170.7,-364.16 230.33,-557.07 105.84,-342.35 188.48,-849.04 146.22,-1227.84l-9.7 -168.1c-9.53,-382.62 -157.21,-315.41 232.03,-572.3 278.47,-183.79 701.09,-352.92 1021.25,-494.28 38.32,-16.92 82.77,-34.89 119.44,-49.9 42.83,-17.54 76.41,-32.27 119.81,-49.51 361.83,-143.77 724.21,-290.99 1092.96,-422.57l366.25 -133.28c231.09,-77.92 456.51,-168.19 687.89,-243.44l60.29 -24.37c-396.12,0 -1814.29,410.86 -2208.8,525.93l-472.1 137.5c-95.73,28.43 -1136.66,352.56 -1171.43,352.56 -89.21,0 -119.65,-92.61 -157.26,-156 -39.93,-67.3 -72.45,-129.28 -113.59,-191.22 -108.83,-163.86 -223.47,-342.28 -361.88,-484.78l-186.42 -194.57c-261.57,-261.63 -576.57,-465.74 -910.83,-621.63 -357.71,-166.81 -806.24,-282.18 -1258.75,-282.18 -409.83,0 -708.2,17.07 -1095.24,132.42 -412.84,123.04 -765.6,336.29 -1074.26,610.61 -225.75,200.63 -425.86,422.88 -602.68,667.31 -78.53,108.57 -153.85,299.92 -267.35,299.92l0.01 -0.03z"/>
 </g>
</svg>
