<?xml version="1.0" encoding="UTF-8"?>
<!DOCTYPE svg PUBLIC "-//W3C//DTD SVG 1.1//EN" "http://www.w3.org/Graphics/SVG/1.1/DTD/svg11.dtd">
<!-- Creator: CorelDRAW 2020 (64-Bit) -->
<svg xmlns="http://www.w3.org/2000/svg" xml:space="preserve" width="138.345mm" height="64.6852mm" version="1.1" style="shape-rendering:geometricPrecision; text-rendering:geometricPrecision; image-rendering:optimizeQuality; fill-rule:evenodd; clip-rule:evenodd"
viewBox="0 0 13972.81 6533.17"
 xmlns:xlink="http://www.w3.org/1999/xlink"
 xmlns:xodm="http://www.corel.com/coreldraw/odm/2003">
 <defs>
  <style type="text/css">
   <![CDATA[
    .fil0 {fill:black}
   ]]>
  </style>
 </defs>
 <g id="Capa_x0020_1">
  <metadata id="CorelCorpID_0Corel-Layer"/>
  <path class="fil0" d="M5789.23 5558.32c-84.4,0 -156.66,2.92 -227.4,-46.24 -106.62,-74.08 -208.72,-218.83 -208.72,-381.32 0,-222.88 134.73,-441.25 250.19,-570.73l132.47 -149.72c43.65,-43.4 144.06,-160.33 215.93,-160.33 211.35,0 -69.58,863.84 -101.46,958.89 -13.68,40.75 -24.52,72.87 -38.56,115.36 -12.93,39.1 -36.45,85.68 -39.55,122.93l100.06 -113.73c15.76,-18.64 16.2,-23.6 34.45,-42.51 100.62,-104.19 262.38,-274.86 377.29,-366.67 192.98,-154.18 374.97,-314.48 582.82,-460.44 29.61,-20.81 54.38,-39.38 84.13,-61.25 17.65,-12.97 75.71,-58.53 95.39,-58.53 37.49,0 68.41,47.49 68.41,85.52 0,160.41 -202.67,514.48 -301.39,613.59 -29.74,29.87 -41.53,55.13 -73.56,80.37 -33.47,26.39 -50.01,47.52 -81.75,72.17 -239.14,185.79 -347.35,220.41 -613.27,310.27 -67.18,22.69 -169.55,52.36 -255.48,52.36zm-25.65 -111.16c-9.09,9.09 13.56,32.43 4.43,9.52 -0.07,-0.19 9.89,-23.85 -4.43,-9.52zm940.64 667c-159.72,0 -275.36,15.2 -421.65,-48.67 -126.23,-55.11 -200.8,-145.82 -55.76,-240.62 60.5,-39.54 229.38,-91.44 340.22,-155.75 117.54,-68.2 193.63,-112.56 302.2,-193.78l136.37 -111.62c89.59,-78.9 203.14,-214.17 264.64,-316.84 137.24,-229.08 198.8,-493.31 143.13,-770.64 -34.81,-173.45 -90.74,-228.13 113.91,-434.61 216.09,-218.02 974.55,-570.29 1275.68,-691.11 206.52,-82.86 687.99,-273.22 879.31,-57.17 243.38,274.83 -42.31,1079.2 -181.64,1361.98 -20.37,41.33 -35.71,77.81 -56.99,122.58 -20.37,42.87 -38.6,67.52 -59.98,111.04 -20.31,41.36 -41.25,77.22 -64.29,115.3 -46.95,77.59 -85.8,146.92 -140.14,219.01 -67.06,88.97 -209.21,258.69 -292.35,331.9 -21.12,18.6 -30.11,21.4 -51.37,42.69l-191.28 159.32c-142.5,107.33 -282.96,185.22 -443.49,266.26 -157.44,79.49 -348.74,140.37 -525.04,184.73 -99.7,25.09 -197.37,40.38 -304,55.16 -208.4,28.87 -429.97,50.83 -667.48,50.83zm-2522.63 -2710.75c0,-116.73 -5.61,-429.55 57.69,-523.8 77.25,-115.04 210.81,6.12 388.17,77.93 215.63,87.31 1263.05,627.66 1253.56,838.52 -2.21,49.19 -114.09,105.68 -178.59,153.34 -194.03,143.38 -189.29,129.28 -364.29,302.71 -147.05,145.72 -319.91,415.25 -388.08,603.88 -23.13,64 -32.16,199.07 -153.93,147.93 -35.55,-14.93 -100.42,-68.93 -123.51,-99.07l-98.99 -123.34c-61.19,-82.93 -112.08,-178.49 -158.34,-277.78l-115.82 -328.85c-29.5,-116.01 -57.85,-233.58 -78.88,-365.79 -19.75,-124.14 -39,-270.34 -39,-405.66zm2437.12 -701.21c-80.59,0 -209.74,-60.42 -287.93,-96.88 -87.71,-40.9 -162.63,-77.09 -247.95,-119.76 -159.32,-79.66 -655.78,-359.89 -791.63,-482.49 -21.5,-19.4 -27.27,-25.5 -50.35,-43.72 -223.3,-176.37 -436.63,-435.06 -280.63,-736.06 147.71,-285.02 732.92,-403.17 1033.52,-437.31 641,-72.79 1336.65,-72.95 1944.2,152.34l140.62 47.5c320.04,127.23 464.82,208.5 736.24,392.54l217.46 167.35c18.3,16.18 28.85,30.76 47.16,46.9 20.84,18.35 30.28,21.9 51.43,42.63 34.37,33.69 55.39,63.01 89.76,98.37l159.8 216.46c64.85,107.78 98.03,156.73 -25.61,230.15 -194.87,115.7 -728.44,293.49 -956.42,369.03l-428.54 144.39c11.56,-31.95 -4.53,-1.17 18.28,-24.47l112.51 -101.26c22.25,-18.71 29.35,-21.06 51.02,-43.05 33.9,-34.37 60.83,-51.75 93.98,-85.6 87.32,-89.15 162.18,-144.91 261.68,-268.5 111.76,-138.82 46.58,-46.07 153.44,-205.72 24.52,-36.64 47.26,-65.88 70.27,-100.76 22.63,-34.31 47.41,-76.07 67.93,-111.65 18.29,-31.72 46.68,-87.36 59.13,-120.44l48.12 -133.21c7.2,-50.19 -36.28,-22.31 -111.86,-7.49 -224.8,44.08 -453.15,126.68 -645.41,243.92 -182.69,111.41 -369.99,17.03 -614.31,95.44 -141.31,45.36 -326.75,175.95 -418.64,291.12 -49.64,62.22 -86.46,85.19 -163.81,195.33 -49.35,70.27 -98.17,137.48 -139.63,219.53 -36.78,72.81 -100.76,165.35 -193.81,165.35zm-2625.25 -974.85c-43.29,0 -367.65,-132.82 -441.41,-157.18 -151.24,-49.95 -292.74,-98.28 -446.91,-143.13 -303.16,-88.18 -624.45,-172.73 -950.91,-237.71 -663.08,-132.02 -1359.93,-223.05 -2154.22,-223.05 1.71,1.19 4.56,0.62 5.41,3.13l489.32 177.68c573.8,215.08 1153.07,428.02 1722.51,654.75 84.02,33.45 158.1,65.19 243.11,98.96 227.03,90.2 1336.42,544.6 1336.42,707.33l-72.1 398.21c-66.77,483.48 -24.06,1030.64 141.74,1473.28 102.85,274.56 237.87,536.13 423.64,764.99l88.19 108.49c65.76,85.4 214.27,219.75 301.31,297.28 323.66,288.3 714.43,499.22 1121.82,656.84 357.59,138.35 774.28,225.94 1159.37,225.94l179.58 0c546.51,0 1025.18,-159.58 1422.4,-356.27 26.31,-13.03 36.47,-19.08 60.59,-33.48 24.81,-14.81 42.67,-21.71 66.52,-36.1 86.63,-52.27 165.39,-98.08 244.97,-156.93 92.26,-68.23 191.25,-133.15 272.96,-214.46l158.04 -149.8c36.68,-36.47 57.58,-66.44 94.16,-102.51 21.76,-21.45 24.46,-28.65 43.16,-50.9l132.98 -166.33c15.37,-20.37 23.6,-32.25 38.79,-55.28l117.95 -181.34c25.19,-41.78 48.98,-80.4 72.54,-124.14 96.21,-178.71 172.41,-367.8 232.63,-562.64 106.9,-345.77 190.36,-857.53 147.68,-1240.12l-9.8 -169.78c-9.63,-386.45 -158.78,-318.56 234.35,-578.02 281.25,-185.63 708.1,-356.45 1031.46,-499.22 38.7,-17.09 83.6,-35.24 120.63,-50.4 43.26,-17.72 77.17,-32.59 121.01,-50.01 365.45,-145.21 731.45,-293.9 1103.89,-426.79l369.91 -134.61c233.4,-78.7 461.07,-169.87 694.77,-245.87l60.89 -24.61c-400.08,0 -1832.43,414.97 -2230.88,531.19l-476.82 138.87c-96.69,28.71 -1148.02,356.08 -1183.14,356.08 -90.1,0 -120.85,-93.54 -158.83,-157.56 -40.33,-67.97 -73.17,-130.57 -114.73,-193.13 -109.92,-165.5 -225.7,-345.7 -365.5,-489.63l-188.28 -196.52c-264.18,-264.25 -582.33,-470.4 -919.94,-627.84 -361.29,-168.48 -814.3,-285 -1271.33,-285 -413.93,0 -715.28,17.24 -1106.19,133.74 -416.97,124.27 -773.25,339.65 -1085,616.71 -228.01,202.64 -430.12,427.11 -608.71,673.98 -79.32,109.66 -155.39,302.92 -270.02,302.92z"/>
 </g>
</svg>
