<?xml version="1.0" encoding="UTF-8"?>
<!DOCTYPE svg PUBLIC "-//W3C//DTD SVG 1.1//EN" "http://www.w3.org/Graphics/SVG/1.1/DTD/svg11.dtd">
<!-- Creator: CorelDRAW 2020 (64-Bit) -->
<svg xmlns="http://www.w3.org/2000/svg" xml:space="preserve" width="64.9765mm" height="64.6852mm" version="1.1" style="shape-rendering:geometricPrecision; text-rendering:geometricPrecision; image-rendering:optimizeQuality; fill-rule:evenodd; clip-rule:evenodd"
viewBox="0 0 6669.02 6639.13"
 xmlns:xlink="http://www.w3.org/1999/xlink"
 xmlns:xodm="http://www.corel.com/coreldraw/odm/2003">
 <defs>
  <style type="text/css">
   <![CDATA[
    .fil0 {fill:#5CA47A}
   ]]>
  </style>
 </defs>
 <g id="Capa_x0020_1">
  <metadata id="CorelCorpID_0Corel-Layer"/>
  <path class="fil0" d="M2128.7 5648.47c-85.76,0 -159.2,2.97 -231.09,-46.99 -108.34,-75.28 -212.1,-222.37 -212.1,-387.51 0,-226.49 136.92,-448.4 254.24,-579.98l134.62 -152.15c44.36,-44.1 146.39,-162.93 219.43,-162.93 214.78,0 -70.71,877.85 -103.11,974.44 -13.9,41.41 -24.92,74.05 -39.19,117.23 -13.14,39.73 -37.04,87.07 -40.19,124.92l101.68 -115.57c16.01,-18.95 16.46,-23.99 35.01,-43.2 102.25,-105.88 266.63,-279.32 383.41,-372.62 196.11,-156.68 381.05,-319.58 592.27,-467.9 30.09,-21.14 55.26,-40.02 85.5,-62.24 17.94,-13.18 76.94,-59.48 96.94,-59.48 38.1,0 69.52,48.26 69.52,86.9 0,163.01 -205.95,522.83 -306.28,623.54 -30.23,30.35 -42.2,56.02 -74.75,81.67 -34.01,26.82 -50.83,48.29 -83.07,73.34 -243.01,188.8 -352.98,223.99 -623.21,315.3 -68.27,23.06 -172.3,53.21 -259.62,53.21zm-26.07 -112.96c-9.24,9.24 13.78,32.96 4.51,9.68 -0.07,-0.2 10.05,-24.23 -4.51,-9.68zm955.89 677.82c-162.31,0 -279.83,15.45 -428.49,-49.46 -128.28,-56 -204.05,-148.19 -56.67,-244.52 61.48,-40.18 233.1,-92.93 345.73,-158.28 119.45,-69.31 196.77,-114.39 307.1,-196.92l138.58 -113.43c91.04,-80.18 206.43,-217.64 268.93,-321.97 139.46,-232.79 202.02,-501.31 145.45,-783.13 -35.38,-176.26 -92.21,-231.83 115.75,-441.66 219.59,-221.55 990.36,-579.54 1296.37,-702.32 209.87,-84.2 699.15,-277.65 893.57,-58.09 247.33,279.29 -42.99,1096.7 -184.58,1384.07 -20.7,42 -36.29,79.07 -57.92,124.57 -20.7,43.57 -39.23,68.61 -60.96,112.84 -20.64,42.03 -41.92,78.48 -65.33,117.17 -47.72,78.85 -87.19,149.31 -142.41,222.56 -68.15,90.41 -212.6,262.89 -297.09,337.29 -21.46,18.91 -30.6,21.75 -52.2,43.38l-194.39 161.9c-144.81,109.07 -287.55,188.23 -450.68,270.58 -159.99,80.78 -354.4,142.65 -533.55,187.72 -101.31,25.5 -200.57,41.03 -308.93,56.05 -211.78,29.33 -436.95,51.66 -678.3,51.66zm-2563.55 -2754.72c0,-118.62 -5.7,-436.52 58.63,-532.3 78.51,-116.9 214.22,6.22 394.47,79.2 219.13,88.73 1283.53,637.84 1273.9,852.12 -2.25,49.98 -115.94,107.39 -181.48,155.82 -197.18,145.7 -192.36,131.38 -370.2,307.61 -149.43,148.09 -325.09,421.98 -394.37,613.67 -23.5,65.04 -32.68,202.3 -156.43,150.33 -36.13,-15.17 -102.05,-70.05 -125.52,-100.68l-100.59 -125.34c-62.18,-84.28 -113.9,-181.38 -160.9,-282.28l-117.69 -334.19c-29.98,-117.89 -58.79,-237.37 -80.16,-371.72 -20.07,-126.15 -39.63,-274.72 -39.63,-412.24zm2476.64 -712.58c-81.89,0 -213.14,-61.4 -292.6,-98.45 -89.13,-41.57 -165.27,-78.34 -251.97,-121.7 -161.9,-80.95 -666.41,-365.73 -804.47,-490.32 -21.85,-19.72 -27.71,-25.92 -51.16,-44.43 -226.92,-179.23 -443.71,-442.11 -285.18,-748 150.11,-289.64 744.81,-409.71 1050.28,-444.4 651.4,-73.97 1358.32,-74.14 1975.73,154.81l142.9 48.27c325.23,129.29 472.36,211.88 748.18,398.91l220.99 170.06c18.6,16.44 29.31,31.26 47.92,47.66 21.17,18.65 30.77,22.25 52.26,43.32 34.93,34.24 56.29,64.04 91.21,99.97l162.39 219.97c65.9,109.52 99.62,159.27 -26.03,233.88 -198.03,117.58 -740.25,298.25 -971.94,375.02l-435.49 146.73c11.75,-32.46 -4.61,-1.19 18.58,-24.87l114.34 -102.9c22.61,-19.01 29.83,-21.4 51.85,-43.74 34.45,-34.93 61.82,-52.59 95.5,-86.99 88.74,-90.6 164.82,-147.26 265.92,-272.85 113.57,-141.08 47.34,-46.81 155.93,-209.05 24.92,-37.24 48.02,-66.95 71.4,-102.39 23,-34.87 48.18,-77.31 69.03,-113.47 18.59,-32.24 47.44,-88.78 60.08,-122.4l48.9 -135.37c7.32,-51 -36.87,-22.67 -113.67,-7.62 -228.45,44.79 -460.5,128.74 -655.87,247.88 -185.65,113.22 -375.99,17.3 -624.27,96.99 -143.6,46.09 -332.05,178.8 -425.43,295.84 -50.45,63.22 -87.86,86.57 -166.47,198.5 -50.15,71.4 -99.76,139.71 -141.9,223.09 -37.38,73.99 -102.39,168.03 -196.95,168.03zm-2754.73 -702.79c-185.49,503.87 -194.22,896.92 -186.24,1011.87 -67.85,491.33 -24.45,1047.35 144.04,1497.17 104.52,279.01 241.73,544.82 430.51,777.4l89.62 110.25c66.83,86.78 217.75,223.32 306.2,302.1 328.91,292.98 726.02,507.32 1140.01,667.49 363.39,140.59 786.84,229.6 1178.18,229.6l182.49 0c555.37,0 1041.81,-162.17 1445.46,-362.04 26.74,-13.24 37.06,-19.39 61.57,-34.02 25.21,-15.05 43.36,-22.07 67.6,-36.68 88.03,-53.11 168.07,-99.67 248.95,-159.48 93.76,-69.33 194.35,-135.31 277.39,-217.94l160.61 -152.23c37.28,-37.06 58.51,-67.51 95.69,-104.18 22.11,-21.8 24.86,-29.12 43.86,-51.73l135.13 -169.02c15.62,-20.7 23.99,-32.77 39.42,-56.17l119.86 -184.29c25.6,-42.46 49.78,-81.7 73.71,-126.15 97.77,-181.61 175.2,-373.76 236.4,-571.76 108.63,-351.38 193.45,-871.43 150.08,-1260.23l-9.96 -172.53c-2.18,-292.32 -169.16,-828.41 -210.74,-976.27 -17.97,-48.11 -68.49,-118.14 -107.09,-183.2 -40.98,-69.08 -74.36,-132.69 -116.59,-196.26 -111.7,-168.18 -229.36,-351.31 -371.42,-497.57l-191.34 -199.71c-268.47,-268.54 -591.78,-478.03 -934.86,-638.03 -367.14,-171.21 -827.5,-289.62 -1291.95,-289.62 -420.64,0 -726.88,17.52 -1124.13,135.91 -423.73,126.29 -785.79,345.16 -1102.59,626.71 -231.7,205.92 -437.09,434.03 -618.59,684.91 -135.1,138.79 -361.05,542.89 -361.3,595.7z"/>
 </g>
</svg>
