<?xml version="1.0" encoding="UTF-8"?>
<!DOCTYPE svg PUBLIC "-//W3C//DTD SVG 1.1//EN" "http://www.w3.org/Graphics/SVG/1.1/DTD/svg11.dtd">
<!-- Creator: CorelDRAW 2020 (64-Bit) -->
<svg xmlns="http://www.w3.org/2000/svg" xml:space="preserve" width="31.6766mm" height="36.2367mm" version="1.1" style="shape-rendering:geometricPrecision; text-rendering:geometricPrecision; image-rendering:optimizeQuality; fill-rule:evenodd; clip-rule:evenodd"
viewBox="0 0 1106.27 1265.53"
 xmlns:xlink="http://www.w3.org/1999/xlink"
 xmlns:xodm="http://www.corel.com/coreldraw/odm/2003">
 <defs>
  <style type="text/css">
   <![CDATA[
    .fil0 {fill:#FFCC29}
   ]]>
  </style>
 </defs>
 <g id="Capa_x0020_1">
  <metadata id="CorelCorpID_0Corel-Layer"/>
  <g id="_2195917726736">
   <path class="fil0" d="M396.23 334.13c0,-109.67 -14.53,-94.62 79.84,-94.62 0,-49.59 -9.63,-38.44 138.97,-38.44 6.89,0 14.78,7.89 14.78,14.78l0 298.65c94.99,0 79.84,-11.71 79.84,100.54 0,9.58 -12.85,17.74 -23.65,17.74l-266.12 0c-33.98,0 -23.65,-40.87 -23.65,-100.54 0,-24.55 54.76,-17.74 79.84,-17.74l0 -150.8c0,-12.88 -15.85,-9.11 -29.52,-8.92 -13.79,0.19 -27.65,0.05 -41.45,0.05 -4.29,-6.41 -8.87,-9.84 -8.87,-20.7zm-159.67 97.58c0,131.47 72.41,235.91 176.39,287.84 200.81,100.27 456.38,-39.92 456.38,-287.84 0,-87.36 -36.96,-162.63 -93.88,-219.55 -22.08,-22.08 -37.8,-34.42 -64.8,-50.52 -43.49,-25.93 -106.81,-43.56 -157.71,-43.56 -166.64,0 -316.39,140.62 -316.39,313.63z"/>
   <path class="fil0" d="M198.11 434.66c0,-48.14 14.78,-107.15 30.54,-140.96 19.72,-42.3 38.27,-71.31 69.26,-102.24 7.63,-7.62 13.03,-13.07 20.65,-20.74 46.98,-47.25 144.29,-87.92 216.64,-87.92 67.91,0 112.98,4.55 172.51,34.47 77.84,39.13 131,96.46 168.56,174.44 64.63,134.19 24.35,313.13 -89.45,409.35l-4.84 4.03c-0.66,0.56 -2.53,2.17 -3.18,2.73 -3.06,2.64 -3.59,3.24 -6.3,5.53 -5.32,4.48 -7.6,5.88 -13.73,9.93 -66.24,43.74 -121.98,66.21 -211.74,66.21 -94.6,0 -210.59,-52.86 -265.72,-127.55 -21.8,-29.54 -34.34,-41.7 -51.54,-81.52 -16.59,-38.42 -31.66,-92.31 -31.66,-145.76zm-79.84 -5.91c0,44.6 3.34,65.66 11.03,104.28 17.15,86.08 58.09,141.27 111.05,205.35 13.66,16.53 66.66,56.47 87.68,69.03 11.57,6.91 21.25,11.81 34.67,18.55 116.62,58.61 263.84,58.61 380.46,0 39.8,-20 93.64,-55.83 122.52,-87.41l56.28 -73.82c14.41,-22.88 34.69,-62.29 42.37,-87.73 59.44,-196.97 0.75,-378.53 -164.73,-498.41 -67.42,-48.84 -162.28,-78.58 -246.67,-78.58 -31.76,0 -68.33,6.23 -94.9,11.55 -48.9,9.78 -111.05,36.84 -150.07,65.78 -10.93,8.1 -20,13.73 -30.7,22.52 -94.65,77.78 -158.99,201.49 -158.99,328.9z"/>
   <path class="fil0" d="M-0 1043.79c0,11.04 3.2,19.7 15.48,22.96l229.95 0.69 113.02 188.62c8.5,9.68 23.38,12 32.51,1.34 6.14,-7.16 32.89,-103.62 36.77,-117.07l69.03 -235.52c-13.6,-3.17 -27.83,-4.27 -42.58,-7.69 -71.14,-16.47 -118.78,-36.87 -177.94,-79.31 -10.73,-7.69 -51.12,-36.48 -54.47,-49.02 -14.23,3.8 -48.05,53.92 -58.23,65.96 -10.16,12.01 -17.44,23.2 -27.08,35.01 -18.65,22.84 -136.46,164.87 -136.46,174.02z"/>
   <path class="fil0" d="M609.12 904.81l104.52 350.88c24.5,35.19 53.51,-33.22 70.1,-60.94l76.71 -127.31 227.48 -0.2c42.83,-7.41 -2.06,-52.85 -7.74,-59.87l-82.79 -103.49c-4.99,-6.15 -8.54,-10.62 -13.14,-16.43l-82.77 -103.51c-6.42,-8.35 -5.81,-12.05 -17.38,-15.14 -3.21,12.01 -4.57,7.27 -24.37,25.9 -8.07,7.59 -19.3,15.18 -28.4,21.87 -58.26,42.8 -106.58,63.13 -177.25,80 -13.15,3.14 -30.87,4.97 -44.98,8.25z"/>
   <path class="fil0" d="M490.85 277.95l-56.18 0 0 41.4c33.24,0 76.88,-7.14 76.88,14.79l0 204.03c0,21.36 -49.52,14.78 -76.88,14.78l0 41.4 236.55 0 0 -41.4c-42.36,0 -55.65,5.34 -76.88,-8.87l0.02 -275.02c0.38,-39.67 11.79,-32.5 -73.94,-32.5 -20.87,0 6.13,41.4 -29.57,41.4z"/>
  </g>
 </g>
</svg>
