<?xml version="1.0" encoding="UTF-8"?>
<!DOCTYPE svg PUBLIC "-//W3C//DTD SVG 1.1//EN" "http://www.w3.org/Graphics/SVG/1.1/DTD/svg11.dtd">
<!-- Creator: CorelDRAW 2020 (64-Bit) -->
<svg xmlns="http://www.w3.org/2000/svg" xml:space="preserve" width="57.1945mm" height="67.8317mm" version="1.1" style="shape-rendering:geometricPrecision; text-rendering:geometricPrecision; image-rendering:optimizeQuality; fill-rule:evenodd; clip-rule:evenodd"
viewBox="0 0 4578.03 5429.46"
 xmlns:xlink="http://www.w3.org/1999/xlink"
 xmlns:xodm="http://www.corel.com/coreldraw/odm/2003">
 <defs>
  <style type="text/css">
   <![CDATA[
    .fil0 {fill:#FFCC29}
   ]]>
  </style>
 </defs>
 <g id="Capa_x0020_1">
  <metadata id="CorelCorpID_0Corel-Layer"/>
  <g id="_2195928135296">
   <path class="fil0" d="M3.69 4743.29c0,257.83 -53.09,560.45 243.92,659.56 138.95,46.36 1493.6,18.06 1704.21,18.06l85.25 -987.64c7.94,-333.04 -22.94,-808.67 249.35,-804.5 282.8,4.32 248.84,430.55 257.75,804.5l85.25 987.64 1688.48 -5.56c282.53,-58.2 259.66,-392.56 259.66,-615.59 0,-285.89 -43.35,-512.57 -76.49,-742.29 -117.26,-812.81 -494.27,-668.92 -1146.03,-915.05 -338.37,-127.78 -163.5,-252.94 -545.28,2.48 -100.9,67.51 -148.45,131.29 -265.05,158.46 -40.14,-172.3 -102.5,-141.17 -367.04,-141.17 -86.62,0 -122.07,69.65 -141.17,141.17 -309.9,-72.2 -395.88,-407.56 -648.5,-254.75 -158.64,95.96 -147.59,95.52 -362.25,147.47 -917.82,222.13 -883.79,460.9 -978.29,1054.55 -27.45,172.4 -43.8,307.24 -43.8,492.65z"/>
   <path class="fil0" d="M1217.74 847.02l9.89 433.11c-6.66,17.17 -11.31,18.87 -20.36,34.13 -93.54,157.66 -129.98,282.28 98.56,489.34 40.05,36.28 66.29,43.61 95.65,101.99 36.5,72.58 67.28,501.29 345.18,755.94 397.02,363.8 877.87,286.42 1185.75,-128.09 144.27,-194.23 150.52,-249.66 215.3,-518.78 43.3,-179.89 28.7,-116.9 142.64,-224.39 299.29,-282.31 75.7,-474.18 68.28,-488.7 -33.64,-65.93 4.89,-266.06 4.89,-454.55 0,-450.16 -429.2,-847.02 -875.26,-847.02l-395.27 0c-460.58,0 -875.26,388.36 -875.26,847.02z"/>
  </g>
 </g>
</svg>
