<?xml version="1.0" encoding="UTF-8"?>
<!DOCTYPE svg PUBLIC "-//W3C//DTD SVG 1.1//EN" "http://www.w3.org/Graphics/SVG/1.1/DTD/svg11.dtd">
<!-- Creator: CorelDRAW 2020 (64-Bit) -->
<svg xmlns="http://www.w3.org/2000/svg" xml:space="preserve" width="49.6021mm" height="65.9973mm" version="1.1" style="shape-rendering:geometricPrecision; text-rendering:geometricPrecision; image-rendering:optimizeQuality; fill-rule:evenodd; clip-rule:evenodd"
viewBox="0 0 4960.22 6599.74"
 xmlns:xlink="http://www.w3.org/1999/xlink"
 xmlns:xodm="http://www.corel.com/coreldraw/odm/2003">
 <defs>
  <style type="text/css">
   <![CDATA[
    .fil0 {fill:#353546}
   ]]>
  </style>
 </defs>
 <g id="Capa_x0020_1">
  <metadata id="CorelCorpID_0Corel-Layer"/>
  <path class="fil0" d="M1372.63 2793.79c0,-378.83 61.52,-598.96 339.03,-877.63 473.18,-475.15 1347.38,-417.68 1754.46,281.56 278.53,478.44 91.88,1218.53 -486.53,1501.11 -360.96,176.34 -811.3,146.21 -1145.56,-87.39 -104.35,-72.93 -182.91,-151.23 -258.76,-255.98 -103.77,-143.32 -202.64,-363.21 -202.64,-561.67zm-1372.63 -467.93c0,366.55 9.81,525.33 146.91,882.56 79.75,207.81 163.4,369.95 258.44,552.67 110.15,211.75 334.52,559.41 468.19,748.46l169.1 236.45c57.3,77.67 105.45,145.51 165.09,224.87l964.7 1265.83c32.25,43.24 56.61,72.39 86.37,116.4 43.81,64.78 144.39,192.24 158.91,246.64 49.59,-13.24 22.78,0.28 54.08,-39.51l1022.2 -1364.32c217.06,-290.1 491.19,-650.6 695.66,-957.74 113.49,-170.47 215.65,-329.92 321.34,-505.36l142.46 -263.09c46.18,-92.65 103.11,-189.25 137.19,-283.96 145.34,-403.89 169.57,-406.3 169.57,-844.31 0,-727.87 -398.02,-1332.71 -893.11,-1774.17 -49.49,-44.13 -111.65,-94.17 -165.17,-131.19 -958.11,-662.8 -2327.45,-566.25 -3157.13,263.66 -241.72,241.79 -335.59,355.55 -500.44,685.02 -128.69,257.19 -244.37,636.68 -244.37,941.09z"/>
 </g>
</svg>
