<?xml version="1.0" encoding="UTF-8"?>
<!DOCTYPE svg PUBLIC "-//W3C//DTD SVG 1.1//EN" "http://www.w3.org/Graphics/SVG/1.1/DTD/svg11.dtd">
<!-- Creator: CorelDRAW 2020 (64-Bit) -->
<svg xmlns="http://www.w3.org/2000/svg" xml:space="preserve" width="104.505mm" height="105.294mm" version="1.1" style="shape-rendering:geometricPrecision; text-rendering:geometricPrecision; image-rendering:optimizeQuality; fill-rule:evenodd; clip-rule:evenodd"
viewBox="0 0 10493.8 10573.08"
 xmlns:xlink="http://www.w3.org/1999/xlink"
 xmlns:xodm="http://www.corel.com/coreldraw/odm/2003">
 <defs>
  <style type="text/css">
   <![CDATA[
    .fil0 {fill:#353546;fill-rule:nonzero}
   ]]>
  </style>
 </defs>
 <g id="Capa_x0020_1">
  <metadata id="CorelCorpID_0Corel-Layer"/>
  <g id="_2787336155600">
   <path class="fil0" d="M4853.28 20.06c-2111.27,191.29 -3907.27,1675.56 -4498.85,3708.89 -205.46,712.02 -251.51,1781.83 -106.27,2454.88 92.1,421.55 290.48,981.24 471.13,1328.4l166.5 318.82 -449.89 1360.29c-247.96,750.99 -442.8,1370.91 -435.72,1381.53 10.62,7.09 648.26,-184.2 1420.5,-432.17l1399.25 -449.89 237.34 120.44c329.44,166.5 797.04,325.91 1222.12,418.01 485.31,106.27 1544.49,113.36 2019.17,17.71 2288.39,-464.06 3956.86,-2313.19 4172.95,-4622.83 198.38,-2107.73 -942.28,-4137.52 -2855.18,-5086.89 -836.01,-414.46 -1831.42,-602.21 -2763.08,-517.2l0.02 0.01zm1296.52 921.02c2833.92,577.41 4318.19,3655.76 2996.87,6216.91 -279.85,534.9 -743.9,1080.43 -1254.01,1466.55 -304.65,230.26 -1009.59,580.96 -1356.74,676.6 -357.79,99.19 -882.06,177.12 -1186.71,177.12 -736.82,0 -1555.11,-216.08 -2153.78,-570.32l-240.88 -145.24 -789.95 251.51c-432.17,138.15 -804.13,251.51 -828.92,251.51 -21.26,0 74.39,-332.98 230.26,-789.95l269.22 -786.42 -131.07 -194.83c-697.85,-1020.21 -878.52,-2469.05 -460.51,-3712.44 485.31,-1445.3 1803.08,-2582.41 3308.6,-2858.72 418.01,-74.39 1179.62,-67.31 1597.63,17.71z"/>
   <path class="fil0" d="M3400.91 2680.4c-38.97,21.26 -131.07,99.19 -205.46,170.03 -577.41,549.08 -595.13,1378 -53.14,2270.67 488.85,800.58 1133.57,1516.15 1703.89,1891.64 332.98,219.63 828.92,449.89 1353.2,627.01 286.93,99.19 347.15,106.27 616.37,88.56 531.36,-35.43 998.95,-329.44 1112.31,-704.94 88.56,-286.93 106.27,-460.51 53.14,-524.27 -49.59,-63.76 -967.07,-559.7 -1154.83,-627.01 -148.78,-49.59 -187.75,-35.43 -329.44,145.24 -233.8,290.48 -432.17,485.31 -499.48,485.31 -123.98,0 -676.6,-311.73 -967.07,-545.53 -297.56,-237.34 -549.08,-524.27 -789.95,-899.77 -216.08,-336.53 -216.08,-332.98 3.54,-584.49 106.27,-120.44 219.63,-272.77 251.51,-336.53l60.22 -120.44 -219.63 -602.21c-123.98,-332.98 -251.51,-637.63 -283.39,-680.14 -49.59,-60.22 -106.27,-74.39 -318.82,-81.48 -152.32,-7.09 -290.48,3.54 -332.98,28.34l0 0.01z"/>
  </g>
 </g>
</svg>
